<?xml version="1.0" encoding="UTF-8" standalone="no"?>
<!DOCTYPE svg PUBLIC "-//W3C//DTD SVG 1.1//EN" "http://www.w3.org/Graphics/SVG/1.1/DTD/svg11.dtd">
<svg width="500px" height="500px" version="1.1" xmlns="http://www.w3.org/2000/svg"
     xml:space="preserve"
     style="fill-rule:evenodd;clip-rule:evenodd;stroke-linejoin:round;stroke-miterlimit:2;">
    <g>
        <path d="M365,38.983C365,28.499 356.628,20 346.3,20C299.068,20 200.932,20 153.7,20C143.372,20 135,28.499 135,38.983C135,112.907 135,387.093 135,461.017C135,471.501 143.372,480 153.7,480C200.932,480 299.068,480 346.3,480C356.628,480 365,471.501 365,461.017C365,387.093 365,112.907 365,38.983Z"
              style="fill:#333;"/>
        <rect x="141.389" y="58.333" width="217.222" height="389.722" style="fill:#f6f6f6;"/>
        <path d="M355,99.847C355,91.016 347.831,83.847 339,83.847L161,83.847C152.169,83.847 145,91.016 145,99.847L145,227.847C145,236.677 152.169,243.847 161,243.847L339,243.847C347.831,243.847 355,236.677 355,227.847L355,99.847Z"
              style="fill:#007bff;"/>
        <path d="M355,272.153C355,263.323 347.831,256.153 339,256.153L161,256.153C152.169,256.153 145,263.323 145,272.153L145,400.153C145,408.984 152.169,416.153 161,416.153L339,416.153C347.831,416.153 355,408.984 355,400.153L355,272.153Z"
              style="fill:#878787;"/>
        <path d="M230.721,145.561L223.489,152.713C218.913,147.871 213.578,145.451 207.485,145.451C202.174,145.451 197.726,147.211 194.141,150.732C190.556,154.253 188.763,158.532 188.763,163.569C188.763,168.777 190.623,173.19 194.344,176.809C198.064,180.428 202.654,182.237 208.112,182.237C211.661,182.237 214.654,181.491 217.089,180C219.525,178.508 221.489,176.173 222.982,172.994L207.358,172.994L207.358,163.349L234.498,163.349L234.572,165.623C234.572,170.342 233.349,174.816 230.904,179.046C228.459,183.276 225.293,186.504 221.405,188.729C217.517,190.954 212.957,192.066 207.725,192.066C202.125,192.066 197.131,190.85 192.742,188.417C188.354,185.984 184.882,182.518 182.326,178.019C179.771,173.52 178.494,168.667 178.494,163.459C178.494,156.319 180.853,150.109 185.572,144.827C191.171,138.543 198.458,135.401 207.431,135.401C212.126,135.401 216.515,136.269 220.598,138.005C224.046,139.472 227.42,141.991 230.721,145.561Z"
              style="fill:#fff;fill-rule:nonzero;"/>
        <path d="M249.231,136.758L259.236,136.758L271.743,174.388L284.363,136.758L294.362,136.758L303.413,190.709L293.482,190.709L287.697,156.637L276.236,190.709L267.185,190.709L255.825,156.637L249.902,190.709L239.89,190.709L249.231,136.758Z"
              style="fill:#fff;fill-rule:nonzero;"/>
        <rect x="310.858" y="136.758" width="10.196" height="53.951" style="fill:#fff;fill-rule:nonzero;"/>
        <rect x="230" y="281.211" width="20" height="20" style="fill:none;fill-rule:nonzero;"/>
        <path d="M255.287,291.211L255.287,301.786L292.298,301.786L292.298,312.387L276.807,312.387C272.947,324.865 266.391,336.655 257.191,346.913L257.045,347.058L283.918,373.614L276.436,381.095L266.443,371.102L250,354.659L223.564,381.095L216.082,373.614L242.968,347.045C236.359,339.696 231.072,331.553 227.212,322.935L237.786,322.935C241.012,329.227 245.083,335.175 250,340.647C251.457,339.026 252.84,337.362 254.148,335.661L254.167,335.637L254.29,335.475C259.747,328.329 263.9,320.488 266.761,312.307L207.702,312.307L207.702,301.786L244.713,301.786L244.713,291.211L255.287,291.211Z"
              style="fill:#fff;fill-rule:nonzero;"/>
    </g>
</svg>
